<svg width="1842" height="283" viewBox="0 0 1842 283" fill="none" xmlns="http://www.w3.org/2000/svg">
<path d="M224.552 187.352C222.411 216.957 211.451 240.262 191.672 257.269C172.02 274.276 146.069 282.779 113.819 282.779C78.5454 282.779 50.7676 270.938 30.4854 247.254C10.3291 223.444 0.250977 190.816 0.250977 149.37V132.552C0.250977 106.097 4.91211 82.7915 14.2344 62.6353C23.5566 42.479 36.8472 27.0469 54.106 16.3389C71.4907 5.50488 91.647 0.0878906 114.575 0.0878906C146.321 0.0878906 171.894 8.59131 191.294 25.5981C210.695 42.605 221.907 66.4775 224.93 97.2158H168.241C166.855 79.4531 161.879 66.6035 153.312 58.667C144.872 50.6045 131.959 46.5732 114.575 46.5732C95.6782 46.5732 81.5059 53.376 72.0576 66.9814C62.7354 80.4609 57.9482 101.436 57.6963 129.907V150.693C57.6963 180.423 62.1685 202.154 71.1128 215.886C80.1831 229.617 94.4185 236.483 113.819 236.483C131.33 236.483 144.368 232.515 152.935 224.578C161.627 216.516 166.603 204.107 167.863 187.352H224.552ZM485.702 279H429.012V161.086H318.468V279H261.778V3.86719H318.468V115.356H429.012V3.86719H485.702V279ZM700.933 159.763H592.089V233.459H719.829V279H535.399V3.86719H719.451V49.7856H592.089V115.356H700.933V159.763ZM969.074 187.352C966.932 216.957 955.972 240.262 936.194 257.269C916.542 274.276 890.59 282.779 858.34 282.779C823.067 282.779 795.289 270.938 775.007 247.254C754.851 223.444 744.772 190.816 744.772 149.37V132.552C744.772 106.097 749.434 82.7915 758.756 62.6353C768.078 42.479 781.369 27.0469 798.627 16.3389C816.012 5.50488 836.168 0.0878906 859.096 0.0878906C890.842 0.0878906 916.416 8.59131 935.816 25.5981C955.216 42.605 966.428 66.4775 969.452 97.2158H912.762C911.376 79.4531 906.4 66.6035 897.834 58.667C889.394 50.6045 876.481 46.5732 859.096 46.5732C840.2 46.5732 826.027 53.376 816.579 66.9814C807.257 80.4609 802.47 101.436 802.218 129.907V150.693C802.218 180.423 806.69 202.154 815.634 215.886C824.705 229.617 838.94 236.483 858.34 236.483C875.851 236.483 888.89 232.515 897.456 224.578C906.148 216.516 911.125 204.107 912.384 187.352H969.074ZM1092.47 168.645L1062.99 200.391V279H1006.3V3.86719H1062.99V128.584L1087.93 94.3813L1158.04 3.86719H1227.77L1130.07 126.127L1230.6 279H1163.14L1092.47 168.645ZM1353.62 210.784L1415.98 3.86719H1479.09L1383.28 279H1324.14L1228.71 3.86719H1291.64L1353.62 210.784ZM1565.45 279H1508.76V3.86719H1565.45V279ZM1841.9 279H1785.21L1674.86 97.9717V279H1618.17V3.86719H1674.86L1785.4 185.273V3.86719H1841.9V279Z" fill="#F9FAFB"/>
</svg>
