<svg width="376" height="74" viewBox="0 0 376 74" fill="none" xmlns="http://www.w3.org/2000/svg">
<path d="M58.1582 49.3184C57.6048 56.9681 54.7728 62.9902 49.6621 67.3848C44.584 71.7793 37.8783 73.9766 29.5449 73.9766C20.4303 73.9766 13.2526 70.9167 8.01172 64.7969C2.80339 58.6445 0.199219 50.2135 0.199219 39.5039V35.1582C0.199219 28.3223 1.40365 22.3001 3.8125 17.0918C6.22135 11.8835 9.6556 7.89583 14.1152 5.12891C18.6074 2.32943 23.8158 0.929688 29.7402 0.929688C37.9434 0.929688 44.5514 3.12695 49.5645 7.52148C54.5775 11.916 57.4746 18.0846 58.2559 26.0273H43.6074C43.2493 21.4375 41.9635 18.1172 39.75 16.0664C37.569 13.9831 34.2324 12.9414 29.7402 12.9414C24.8574 12.9414 21.1953 14.6992 18.7539 18.2148C16.3451 21.6979 15.1081 27.1178 15.043 34.4746V39.8457C15.043 47.528 16.1986 53.1432 18.5098 56.6914C20.8535 60.2396 24.5319 62.0137 29.5449 62.0137C34.0697 62.0137 37.4388 60.9883 39.6523 58.9375C41.8984 56.8542 43.1842 53.6478 43.5098 49.3184H58.1582ZM125.639 73H110.99V42.5312H82.4258V73H67.7773V1.90625H82.4258V30.7148H110.99V1.90625H125.639V73ZM181.254 42.1895H153.129V61.2324H186.137V73H138.48V1.90625H186.039V13.7715H153.129V30.7148H181.254V42.1895ZM250.541 49.3184C249.988 56.9681 247.156 62.9902 242.045 67.3848C236.967 71.7793 230.261 73.9766 221.928 73.9766C212.813 73.9766 205.635 70.9167 200.395 64.7969C195.186 58.6445 192.582 50.2135 192.582 39.5039V35.1582C192.582 28.3223 193.786 22.3001 196.195 17.0918C198.604 11.8835 202.038 7.89583 206.498 5.12891C210.99 2.32943 216.199 0.929688 222.123 0.929688C230.326 0.929688 236.934 3.12695 241.947 7.52148C246.96 11.916 249.857 18.0846 250.639 26.0273H235.99C235.632 21.4375 234.346 18.1172 232.133 16.0664C229.952 13.9831 226.615 12.9414 222.123 12.9414C217.24 12.9414 213.578 14.6992 211.137 18.2148C208.728 21.6979 207.491 27.1178 207.426 34.4746V39.8457C207.426 47.528 208.581 53.1432 210.893 56.6914C213.236 60.2396 216.915 62.0137 221.928 62.0137C226.452 62.0137 229.822 60.9883 232.035 58.9375C234.281 56.8542 235.567 53.6478 235.893 49.3184H250.541ZM282.426 44.4844L274.809 52.6875V73H260.16V1.90625H274.809V34.1328L281.254 25.2949L299.369 1.90625H317.387L292.143 33.498L318.119 73H300.688L282.426 44.4844ZM360.502 54.3477C360.502 51.5807 359.525 49.4648 357.572 48C355.619 46.5026 352.104 44.9401 347.025 43.3125C341.947 41.6523 337.927 40.0247 334.965 38.4297C326.892 34.0677 322.855 28.1921 322.855 20.8027C322.855 16.9616 323.93 13.5436 326.078 10.5488C328.259 7.52148 331.368 5.16146 335.404 3.46875C339.473 1.77604 344.031 0.929688 349.076 0.929688C354.154 0.929688 358.679 1.85742 362.65 3.71289C366.622 5.53581 369.698 8.1237 371.879 11.4766C374.092 14.8294 375.199 18.638 375.199 22.9023H360.551C360.551 19.6471 359.525 17.1243 357.475 15.334C355.424 13.5111 352.543 12.5996 348.832 12.5996C345.251 12.5996 342.468 13.3646 340.482 14.8945C338.497 16.3919 337.504 18.3776 337.504 20.8516C337.504 23.1628 338.66 25.0996 340.971 26.6621C343.314 28.2246 346.749 29.6895 351.273 31.0566C359.607 33.5632 365.678 36.6719 369.486 40.3828C373.295 44.0938 375.199 48.7161 375.199 54.25C375.199 60.4023 372.872 65.2363 368.217 68.752C363.562 72.235 357.296 73.9766 349.418 73.9766C343.949 73.9766 338.969 72.9837 334.477 70.998C329.984 68.9798 326.55 66.2292 324.174 62.7461C321.83 59.263 320.658 55.2266 320.658 50.6367H335.355C335.355 58.4818 340.043 62.4043 349.418 62.4043C352.901 62.4043 355.619 61.7044 357.572 60.3047C359.525 58.8724 360.502 56.8867 360.502 54.3477Z" fill="#4F697D" fill-opacity="0.05"/>
</svg>
