<svg width="707" height="74" viewBox="0 0 707 74" fill="none" xmlns="http://www.w3.org/2000/svg">
<path d="M58.8633 13.7715H37.0859V73H22.4375V13.7715H0.953125V1.90625H58.8633V13.7715ZM110.035 42.1895H81.9102V61.2324H114.918V73H67.2617V1.90625H114.82V13.7715H81.9102V30.7148H110.035V42.1895ZM160.377 54.3477C160.377 51.5807 159.4 49.4648 157.447 48C155.494 46.5026 151.979 44.9401 146.9 43.3125C141.822 41.6523 137.802 40.0247 134.84 38.4297C126.767 34.0677 122.73 28.1921 122.73 20.8027C122.73 16.9616 123.805 13.5436 125.953 10.5488C128.134 7.52148 131.243 5.16146 135.279 3.46875C139.348 1.77604 143.906 0.929688 148.951 0.929688C154.029 0.929688 158.554 1.85742 162.525 3.71289C166.497 5.53581 169.573 8.1237 171.754 11.4766C173.967 14.8294 175.074 18.638 175.074 22.9023H160.426C160.426 19.6471 159.4 17.1243 157.35 15.334C155.299 13.5111 152.418 12.5996 148.707 12.5996C145.126 12.5996 142.343 13.3646 140.357 14.8945C138.372 16.3919 137.379 18.3776 137.379 20.8516C137.379 23.1628 138.535 25.0996 140.846 26.6621C143.189 28.2246 146.624 29.6895 151.148 31.0566C159.482 33.5632 165.553 36.6719 169.361 40.3828C173.17 44.0938 175.074 48.7161 175.074 54.25C175.074 60.4023 172.747 65.2363 168.092 68.752C163.437 72.235 157.171 73.9766 149.293 73.9766C143.824 73.9766 138.844 72.9837 134.352 70.998C129.859 68.9798 126.425 66.2292 124.049 62.7461C121.705 59.263 120.533 55.2266 120.533 50.6367H135.23C135.23 58.4818 139.918 62.4043 149.293 62.4043C152.776 62.4043 155.494 61.7044 157.447 60.3047C159.4 58.8724 160.377 56.8867 160.377 54.3477ZM238.551 13.7715H216.773V73H202.125V13.7715H180.641V1.90625H238.551V13.7715ZM262.525 73H247.877V1.90625H262.525V73ZM295.289 1.90625L313.551 53.4688L331.715 1.90625H350.953V73H336.256V53.5664L337.721 20.0215L318.531 73H308.473L289.332 20.0703L290.797 53.5664V73H276.148V1.90625H295.289ZM422.145 39.0645C422.145 46.0632 420.908 52.1992 418.434 57.4727C415.96 62.7461 412.411 66.8151 407.789 69.6797C403.199 72.5443 397.926 73.9766 391.969 73.9766C386.077 73.9766 380.82 72.5605 376.197 69.7285C371.575 66.8965 367.994 62.86 365.455 57.6191C362.916 52.3457 361.63 46.291 361.598 39.4551V35.9395C361.598 28.9408 362.851 22.7884 365.357 17.4824C367.896 12.1439 371.461 8.05859 376.051 5.22656C380.673 2.36198 385.947 0.929688 391.871 0.929688C397.796 0.929688 403.053 2.36198 407.643 5.22656C412.265 8.05859 415.829 12.1439 418.336 17.4824C420.875 22.7884 422.145 28.9245 422.145 35.8906V39.0645ZM407.301 35.8418C407.301 28.3874 405.966 22.7233 403.297 18.8496C400.628 14.9759 396.819 13.0391 391.871 13.0391C386.956 13.0391 383.163 14.9596 380.494 18.8008C377.825 22.6094 376.474 28.2083 376.441 35.5977V39.0645C376.441 46.3236 377.776 51.9551 380.445 55.959C383.115 59.9629 386.956 61.9648 391.969 61.9648C396.884 61.9648 400.66 60.0443 403.297 56.2031C405.934 52.3294 407.268 46.6979 407.301 39.3086V35.8418ZM490.602 73H475.953L447.438 26.2227V73H432.789V1.90625H447.438L476.002 48.7812V1.90625H490.602V73ZM518.971 73H504.322V1.90625H518.971V73ZM573.609 58.3516H547.926L543.043 73H527.467L553.932 1.90625H567.506L594.117 73H578.541L573.609 58.3516ZM551.881 46.4863H569.654L560.719 19.875L551.881 46.4863ZM615.406 61.2324H646.51V73H600.758V1.90625H615.406V61.2324ZM691.822 54.3477C691.822 51.5807 690.846 49.4648 688.893 48C686.939 46.5026 683.424 44.9401 678.346 43.3125C673.268 41.6523 669.247 40.0247 666.285 38.4297C658.212 34.0677 654.176 28.1921 654.176 20.8027C654.176 16.9616 655.25 13.5436 657.398 10.5488C659.579 7.52148 662.688 5.16146 666.725 3.46875C670.794 1.77604 675.351 0.929688 680.396 0.929688C685.475 0.929688 689.999 1.85742 693.971 3.71289C697.942 5.53581 701.018 8.1237 703.199 11.4766C705.413 14.8294 706.52 18.638 706.52 22.9023H691.871C691.871 19.6471 690.846 17.1243 688.795 15.334C686.744 13.5111 683.863 12.5996 680.152 12.5996C676.572 12.5996 673.788 13.3646 671.803 14.8945C669.817 16.3919 668.824 18.3776 668.824 20.8516C668.824 23.1628 669.98 25.0996 672.291 26.6621C674.635 28.2246 678.069 29.6895 682.594 31.0566C690.927 33.5632 696.998 36.6719 700.807 40.3828C704.615 44.0938 706.52 48.7161 706.52 54.25C706.52 60.4023 704.192 65.2363 699.537 68.752C694.882 72.235 688.616 73.9766 680.738 73.9766C675.27 73.9766 670.289 72.9837 665.797 70.998C661.305 68.9798 657.87 66.2292 655.494 62.7461C653.15 59.263 651.979 55.2266 651.979 50.6367H666.676C666.676 58.4818 671.363 62.4043 680.738 62.4043C684.221 62.4043 686.939 61.7044 688.893 60.3047C690.846 58.8724 691.822 56.8867 691.822 54.3477Z" fill="#F9FAFB"/>
</svg>
